<?xml version="1.0" encoding="iso-8859-1"?>
<!-- Generator: Adobe Illustrator 19.0.0, SVG Export Plug-In . SVG Version: 6.00 Build 0)  -->
<svg version="1.1" id="Layer_1" xmlns="http://www.w3.org/2000/svg" xmlns:xlink="http://www.w3.org/1999/xlink" x="0px" y="0px"
	 viewBox="0 0 512 512" style="enable-background:new 0 0 512 512;" xml:space="preserve">
<rect x="15.833" y="394.169" style="fill:#FEE187;" width="480.332" height="77.913"/>
<path style="fill:#FFC61B;" d="M496.167,487.908H15.833C7.088,487.908,0,480.82,0,472.076v-77.911
	c0-8.744,7.088-15.833,15.833-15.833h480.335c8.743,0,15.833,7.088,15.833,15.833v77.911
	C512,480.82,504.912,487.908,496.167,487.908z M31.665,456.243h448.669v-46.246H31.665V456.243z"/>
<rect x="15.833" y="39.929" style="fill:#FEE187;" width="480.332" height="77.913"/>
<path style="fill:#FFC61B;" d="M496.167,133.668H15.833C7.088,133.668,0,126.58,0,117.835V39.924
	c0-8.744,7.088-15.833,15.833-15.833h480.335c8.743,0,15.833,7.088,15.833,15.833v77.911
	C512,126.58,504.912,133.668,496.167,133.668z M31.665,102.003h448.669V55.757H31.665V102.003z"/>
<rect x="18.51" y="209.956" style="fill:#FEE187;" width="92.099" height="92.099"/>
<g>
	<path style="fill:#FFC61B;" d="M110.605,317.88H18.51c-8.744,0-15.833-7.088-15.833-15.833v-92.095
		c0-8.744,7.088-15.833,15.833-15.833h92.095c8.744,0,15.833,7.088,15.833,15.833v92.095
		C126.438,310.791,119.35,317.88,110.605,317.88z M34.343,286.214h60.43v-60.43h-60.43V286.214z"/>
	<path style="fill:#FFC61B;" d="M303.387,317.88h-92.095c-8.744,0-15.833-7.088-15.833-15.833v-92.095
		c0-8.744,7.088-15.833,15.833-15.833h92.095c8.743,0,15.833,7.088,15.833,15.833s-7.09,15.833-15.833,15.833h-76.263v60.43h76.263
		c8.743,0,15.833,7.088,15.833,15.833S312.13,317.88,303.387,317.88z"/>
</g>
<rect x="404.066" y="209.956" style="fill:#FEE187;" width="92.099" height="92.099"/>
<path style="fill:#FFC61B;" d="M496.167,317.88h-92.095c-8.743,0-15.833-7.088-15.833-15.833v-92.095
	c0-8.744,7.09-15.833,15.833-15.833h92.095c8.743,0,15.833,7.088,15.833,15.833v92.095C512,310.791,504.912,317.88,496.167,317.88z
	 M419.905,286.214h60.43v-60.43h-60.43V286.214z"/>
<g>
</g>
<g>
</g>
<g>
</g>
<g>
</g>
<g>
</g>
<g>
</g>
<g>
</g>
<g>
</g>
<g>
</g>
<g>
</g>
<g>
</g>
<g>
</g>
<g>
</g>
<g>
</g>
<g>
</g>
</svg>
